<svg xmlns="http://www.w3.org/2000/svg" xmlns:xlink="http://www.w3.org/1999/xlink" width="450" viewBox="0 0 450 75" height="75" version="1.0"><defs><g id="a"><path d="M 5.605469 -63.285156 L 52.238281 -63.285156 L 52.238281 -24.617188 L 11.859375 -24.617188 L 11.859375 2.601562 L 5.605469 2.601562 Z M 11.859375 -30.628906 L 45.980469 -30.628906 L 45.980469 -57.273438 L 11.859375 -57.273438 Z M 11.859375 -30.628906"/></g><g id="b"><path d="M 11.941406 -3.574219 L 53.210938 -3.574219 L 53.210938 2.601562 L 5.605469 2.601562 L 5.605469 -63.285156 L 11.941406 -63.285156 Z M 11.941406 -3.574219"/></g><g id="c"><path d="M 5.605469 -63.285156 L 54.59375 -63.285156 L 54.59375 2.601562 L 5.605469 2.601562 Z M 11.78125 -3.410156 L 48.257812 -3.410156 L 48.257812 -57.191406 L 11.78125 -57.191406 Z M 11.78125 -3.410156"/></g><g id="d"><path d="M 58.410156 -63.285156 L 58.410156 -57.03125 L 33.144531 -57.03125 L 33.144531 2.601562 L 26.808594 2.601562 L 26.808594 -57.03125 L 1.542969 -57.03125 L 1.542969 -63.285156 Z M 58.410156 -63.285156"/></g><g id="e"><path d="M 11.859375 -3.332031 L 52.644531 -3.332031 L 52.644531 2.601562 L 5.605469 2.601562 L 5.605469 -33.878906 L 52.238281 -33.878906 L 52.238281 -11.375 L 11.859375 -11.375 Z M 45.980469 -27.867188 L 11.859375 -27.867188 L 11.859375 -17.386719 L 45.980469 -17.386719 Z M 45.980469 -27.867188"/></g><g id="f"><path d="M 5.605469 -33.878906 L 64.910156 -33.878906 L 64.910156 2.355469 L 58.65625 2.355469 L 58.65625 -27.867188 L 38.265625 -27.867188 L 38.265625 1.789062 L 32.253906 1.789062 L 32.253906 -27.867188 L 11.78125 -27.867188 L 11.78125 2.355469 L 5.605469 2.355469 Z M 5.605469 -33.878906"/></g><g id="g"><path d="M 5.605469 -33.878906 L 52.238281 -33.878906 L 52.238281 2.601562 L 5.605469 2.601562 Z M 11.859375 -3.332031 L 45.980469 -3.332031 L 45.980469 -27.867188 L 11.859375 -27.867188 Z M 11.859375 -3.332031"/></g><clipPath id="h"><path d="M 161 41 L 171 41 L 171 51.117188 L 161 51.117188 Z M 161 41"/></clipPath></defs><g fill="#FFF"><use x="14.883" y="68.379" xmlns:xlink="http://www.w3.org/1999/xlink" xlink:href="#a" xlink:type="simple" xlink:actuate="onLoad" xlink:show="embed"/></g><g fill="#FFF"><use x="72.722" y="68.379" xmlns:xlink="http://www.w3.org/1999/xlink" xlink:href="#b" xlink:type="simple" xlink:actuate="onLoad" xlink:show="embed"/></g><g fill="#FFF"><use x="129.098" y="68.379" xmlns:xlink="http://www.w3.org/1999/xlink" xlink:href="#c" xlink:type="simple" xlink:actuate="onLoad" xlink:show="embed"/></g><g fill="#FFF"><use x="189.293" y="68.379" xmlns:xlink="http://www.w3.org/1999/xlink" xlink:href="#d" xlink:type="simple" xlink:actuate="onLoad" xlink:show="embed"/></g><g fill="#FFF"><use x="249.244" y="68.379" xmlns:xlink="http://www.w3.org/1999/xlink" xlink:href="#e" xlink:type="simple" xlink:actuate="onLoad" xlink:show="embed"/></g><g fill="#FFF"><use x="306.758" y="68.379" xmlns:xlink="http://www.w3.org/1999/xlink" xlink:href="#f" xlink:type="simple" xlink:actuate="onLoad" xlink:show="embed"/></g><g fill="#FFF"><use x="377.27" y="68.379" xmlns:xlink="http://www.w3.org/1999/xlink" xlink:href="#g" xlink:type="simple" xlink:actuate="onLoad" xlink:show="embed"/></g><path transform="matrix(.75 0 0 .75 14.871 -18.621)" fill="none" d="M 7.49999 31.614585 L 69.67187 31.614585 L 69.67187 83.182298 L 15.828116 83.182298 L 15.828116 119.463551 L 7.49999 119.463551 Z M 15.828116 75.166672 L 61.317703 75.166672 L 61.317703 39.625003 L 15.828116 39.625003 Z M 93.05208 111.239592 L 148.088543 111.239592 L 148.088543 119.463551 L 84.619788 119.463551 L 84.619788 31.614585 L 93.05208 31.614585 Z M 159.786461 31.614585 L 225.109383 31.614585 L 225.109383 119.463551 L 159.786461 119.463551 Z M 168.01042 111.453134 L 216.645841 111.453134 L 216.645841 39.729169 L 168.01042 39.729169 Z M 310.442723 31.614585 L 310.442723 39.968753 L 276.75522 39.968753 L 276.75522 119.463551 L 268.31772 119.463551 L 268.31772 39.968753 L 234.625009 39.968753 L 234.625009 31.614585 Z M 328.312516 111.5573 L 382.682312 111.5573 L 382.682312 119.463551 L 319.979182 119.463551 L 319.979182 70.833339 L 382.156271 70.833339 L 382.156271 100.848966 L 328.312516 100.848966 Z M 373.796895 78.843756 L 328.312516 78.843756 L 328.312516 92.807299 L 373.796895 92.807299 Z M 396.666689 70.833339 L 475.739612 70.833339 L 475.739612 119.145842 L 467.380236 119.145842 L 467.380236 78.843756 L 440.197942 78.843756 L 440.197942 118.380217 L 432.182316 118.380217 L 432.182316 78.843756 L 404.890648 78.843756 L 404.890648 119.145842 L 396.666689 119.145842 Z M 490.682321 70.833339 L 552.854201 70.833339 L 552.854201 119.463551 L 490.682321 119.463551 Z M 499.010447 111.5573 L 544.500034 111.5573 L 544.500034 78.843756 L 499.010447 78.843756 Z M 499.010447 111.5573" stroke="#FFF" stroke-width="2.37"/><path stroke-linecap="round" transform="matrix(1.86272 -.01837 .01839 1.86454 144.525 24.835)" fill="none" d="M 0.500524 -0.000586104 L 15.517579 0.000704379" stroke="#00C852"/><path stroke-linecap="round" transform="matrix(1.44114 -1.20492 1.19603 1.43051 90.047 60.39)" fill="none" d="M 4.000134 0.000740463 L 13.874727 0.000528201" stroke="#00C852"/><path transform="matrix(1.44114 -1.20492 1.19603 1.43051 90.047 60.39)" fill="#00C852" d="M 3.49959 -0.000346387 C 3.499536 0.198946 3.461951 0.391203 3.386576 0.573474 C 3.309866 0.757352 3.201773 0.920257 3.060702 1.060846 C 2.91963 1.201434 2.756512 1.309799 2.574276 1.385677 C 2.389112 1.461819 2.199214 1.501206 1.999796 1.499807 C 1.801974 1.499752 1.611136 1.461888 1.425685 1.384872 C 1.24183 1.309199 1.080127 1.200303 0.939242 1.05979 C 0.798357 0.919277 0.691053 0.757897 0.61414 0.572963 C 0.537487 0.39098 0.499725 0.198063 0.49978 -0.00122908 C 0.500096 -0.197571 0.53768 -0.389828 0.61439 -0.573706 C 0.691099 -0.757584 0.799192 -0.920489 0.940264 -1.061077 C 1.080001 -1.200058 1.241524 -1.309767 1.426689 -1.385909 C 1.608925 -1.461787 1.800418 -1.499831 2.001169 -1.500039 C 2.198991 -1.499983 2.38983 -1.46212 2.573685 -1.386447 C 2.75754 -1.310775 2.919243 -1.201878 3.060128 -1.061365 C 3.201013 -0.920852 3.309912 -0.758129 3.38523 -0.574539 C 3.462144 -0.389605 3.499645 -0.199639 3.49959 -0.000346387 Z M 3.49959 -0.000346387" stroke="#00C852"/><path transform="matrix(1.44114 -1.20492 1.19603 1.43051 115.806 38.852)" fill="#00C852" d="M -0.499332 -0.000455951 C -0.499387 0.198836 -0.538567 0.38975 -0.613681 0.574972 C -0.69039 0.75885 -0.798745 0.918804 -0.938221 1.060736 C -1.079292 1.201324 -1.242411 1.309689 -1.42598 1.387175 C -1.609811 1.461709 -1.801305 1.499753 -1.999126 1.499697 C -2.199877 1.499906 -2.390716 1.462042 -2.574571 1.386369 C -2.757093 1.30909 -2.920129 1.201801 -3.061014 1.061288 C -3.201899 0.920775 -3.310798 0.758051 -3.386117 0.574461 C -3.461435 0.390871 -3.500532 0.199561 -3.500477 0.000268538 C -3.500422 -0.199024 -3.461242 -0.389937 -3.386128 -0.575159 C -3.310753 -0.75743 -3.201065 -0.918991 -3.061588 -1.060923 C -2.920517 -1.201512 -2.757399 -1.309877 -2.575163 -1.385755 C -2.389998 -1.461897 -2.198505 -1.49994 -2.000683 -1.499885 C -1.799932 -1.500093 -1.609093 -1.462229 -1.425238 -1.386557 C -1.242717 -1.309277 -1.07968 -1.201988 -0.938795 -1.061475 C -0.799244 -0.919355 -0.690345 -0.756631 -0.613692 -0.574648 C -0.538374 -0.391058 -0.500611 -0.198141 -0.499332 -0.000455951 Z M -0.499332 -0.000455951" stroke="#00C852"/><path stroke-linecap="round" transform="matrix(.37703 -1.85 1.82708 .37236 113.547 40.245)" fill="none" d="M 0.499662 -0.00028385 L 10.32428 -0.000865892" stroke="#00C852"/><path transform="matrix(.37703 -1.85 1.82708 .37236 118.947 13.746)" fill="#00C852" d="M -0.500294 -0.000240935 C -0.500389 0.198611 -0.537839 0.390205 -0.614672 0.57496 C -0.689892 0.757245 -0.798451 0.920753 -0.939149 1.060962 C -1.079847 1.201171 -1.24176 1.309412 -1.426915 1.386104 C -1.610043 1.462378 -1.80102 1.499649 -1.999435 1.499972 C -2.197849 1.500295 -2.38951 1.46074 -2.57359 1.385414 C -2.75767 1.310087 -2.92118 1.200584 -3.061265 1.060592 C -3.201351 0.920599 -3.310278 0.757073 -3.385193 0.5737 C -3.462135 0.390746 -3.500559 0.199843 -3.500465 0.000991632 C -3.500371 -0.19786 -3.460893 -0.389872 -3.386087 -0.57421 C -3.30884 -0.756912 -3.202308 -0.920003 -3.06161 -1.060212 C -2.918884 -1.200839 -2.756972 -1.30908 -2.573844 -1.385353 C -2.390716 -1.461627 -2.199739 -1.498899 -1.999297 -1.49964 C -1.800882 -1.499962 -1.609635 -1.462461 -1.425142 -1.385081 C -1.243089 -1.309337 -1.079993 -1.201886 -0.939494 -1.059841 C -0.799408 -0.919848 -0.690894 -0.758375 -0.613539 -0.573368 C -0.538624 -0.389995 -0.5002 -0.199092 -0.500294 -0.000240935 Z M -0.500294 -0.000240935" stroke="#00C852"/><g clip-path="url(#h)"><path fill="#00C852" d="M 165.332031 42.21875 C 165.285156 42.265625 165.246094 42.320312 165.214844 42.378906 L 161.21875 50.117188 C 161.089844 50.371094 161.136719 50.679688 161.335938 50.882812 C 161.460938 51.007812 161.625 51.074219 161.792969 51.074219 C 161.894531 51.074219 162 51.050781 162.09375 51 L 169.757812 46.964844 C 169.816406 46.933594 169.871094 46.894531 169.917969 46.847656 L 170.992188 45.765625 L 166.40625 41.136719 Z M 165.332031 42.21875"/></g><path fill="#00C852" d="M 187.90625 24.0625 C 186.679688 22.824219 184.308594 23.058594 182.824219 24.5625 L 181.078125 26.320312 L 179.703125 24.933594 C 179.582031 24.8125 179.417969 24.742188 179.246094 24.742188 C 179.070312 24.742188 178.90625 24.808594 178.785156 24.933594 L 170.988281 32.804688 C 170.734375 33.058594 170.734375 33.472656 170.988281 33.730469 C 171.117188 33.859375 171.28125 33.921875 171.449219 33.921875 C 171.613281 33.921875 171.78125 33.859375 171.90625 33.730469 L 179.242188 26.324219 L 180.160156 27.25 L 167.320312 40.210938 L 171.90625 44.839844 L 184.746094 31.878906 C 185 32.136719 185.292969 32.136719 185.546875 31.878906 C 185.800781 31.625 185.425781 31.210938 185.425781 30.957031 L 185.425781 30.953125 L 187.289062 29.191406 C 188.828125 27.636719 189.171875 25.339844 187.90625 24.0625 Z M 187.90625 24.0625"/><path stroke-linecap="round" transform="matrix(1.86272 -.01837 .01839 1.86454 144.414 37.368)" fill="none" d="M 0.499072 0.00048198 L 15.518245 -0.000301694" stroke="#00C852"/><path stroke-linecap="round" transform="matrix(1.86272 -.01837 .01839 1.86454 144.525 50.931)" fill="none" d="M 0.500518 0.000034546 L 15.517593 -0.000769784" stroke="#00C852"/></svg>